HIERARCHY
ROOT Hips
{
  OFFSET -33.9132 29.2015 117.021
  CHANNELS 6 Xposition Yposition Zposition Zrotation Xrotation Yrotation
  JOINT LeftUpLeg
  {
    OFFSET 8.64259 1.95398 -2.38835
    CHANNELS 3 Zrotation Xrotation Yrotation
    JOINT LeftLeg
    {
      OFFSET 43.7702 0 0
      CHANNELS 3 Zrotation Xrotation Yrotation
      JOINT LeftFoot
      {
        OFFSET 40.6238 0 0
        CHANNELS 3 Zrotation Xrotation Yrotation
        JOINT LeftToeBase
        {
          OFFSET 12.7242 0 0
          CHANNELS 3 Zrotation Xrotation Yrotation
          End Site
          {
            OFFSET 0 0 0
          }
        }
      }
    }
  }
  JOINT RightUpLeg
  {
    OFFSET -8.2249 1.95398 -2.59336
    CHANNELS 3 Zrotation Xrotation Yrotation
    JOINT RightLeg
    {
      OFFSET 43.5653 0 0
      CHANNELS 3 Zrotation Xrotation Yrotation
      JOINT RightFoot
      {
        OFFSET 40.6238 0 0
        CHANNELS 3 Zrotation Xrotation Yrotation
        JOINT RightToeBase
        {
          OFFSET 12.7242 0 0
          CHANNELS 3 Zrotation Xrotation Yrotation
          End Site
          {
            OFFSET 0 0 0
          }
        }
      }
    }
  }
  JOINT Spine
  {
    OFFSET 0.165834 0.87714 6.61349
    CHANNELS 3 Zrotation Xrotation Yrotation
    JOINT Spine1
    {
      OFFSET 7.38963 1.71661e-005 0
      CHANNELS 3 Zrotation Xrotation Yrotation
      JOINT Spine2
      {
        OFFSET 11.9445 1.14441e-005 0
        CHANNELS 3 Zrotation Xrotation Yrotation
        JOINT Spine3
        {
          OFFSET 14.7254 4.19617e-005 0
          CHANNELS 3 Zrotation Xrotation Yrotation
          JOINT Spine4
          {
            OFFSET 10.9679 0 0
            CHANNELS 3 Zrotation Xrotation Yrotation
            JOINT RightShoulder
            {
              OFFSET 2.46616 -1.6653 3.69651
              CHANNELS 3 Zrotation Xrotation Yrotation
              JOINT RightArm
              {
                OFFSET 13.0012 0 0
                CHANNELS 3 Zrotation Xrotation Yrotation
                JOINT RightForeArm
                {
                  OFFSET 28.7848 1.62311e-005 0
                  CHANNELS 3 Zrotation Xrotation Yrotation
                  JOINT RightHand
                  {
                    OFFSET 26.5688 1.62095e-005 0
                    CHANNELS 3 Zrotation Xrotation Yrotation
                    End Site
                    {
                      OFFSET 0 0 0
                    }
                  }
                }
              }
            }
            JOINT LeftShoulder
            {
              OFFSET 2.38034 -1.29275 -3.7523
              CHANNELS 3 Zrotation Xrotation Yrotation
              JOINT LeftArm
              {
                OFFSET 16.3182 6.07031e-005 0
                CHANNELS 3 Zrotation Xrotation Yrotation
                JOINT LeftForeArm
                {
                  OFFSET 27.0901 0 0
                  CHANNELS 3 Zrotation Xrotation Yrotation
                  JOINT LeftHand
                  {
                    OFFSET 24.5451 1.51738e-005 0
                    CHANNELS 3 Zrotation Xrotation Yrotation
                    End Site
                    {
                      OFFSET 0 0 0
                    }
                  }
                }
              }
            }
            JOINT Neck
            {
              OFFSET 5.0226 -0.0266342 0
              CHANNELS 3 Zrotation Xrotation Yrotation
              JOINT Head
              {
                OFFSET 6.69364 2.86102e-005 0
                CHANNELS 3 Zrotation Xrotation Yrotation
                End Site
                {
                  OFFSET 0 0 0
                }
              }
            }
          }
        }
      }
    }
  }
}
MOTION
Frames:	10
Frame Time:	0.0416667
0.277495 109.738 -2.73113 87.4077 49.128 91.5216 -172.715 0.50862 89.9118 -67.1532 24.365 3.54503 46.8453 -8.99507 -2.83515 10.2702 -10.2917 1.91632 167.582 4.77765 91.6888 -92.3643 -13.9989 -2.33338 57.4211 1.97775 -0.0790505 19.5019 2.05265 6.67723 0.195977 7.20835 -90.5221 12.4566 0.140948 -1.05839 0.785219 0.0942267 -1.06357 -21.747 0.452502 -0.967109 -1.7343 0.452485 -0.967122 103.938 9.44883 -72.4041 -4.15643 36.2437 -45.6933 -3.4853 -5.10647 -4.8928 -20.0818 1.66541 -14.9408 -79.1262 -3.55787 92.0906 3.75759 -50.7979 -69.2219 -2.56812 7.47169 -0.00412838 13.1825 -1.42203 -15.0459 -28.1686 -0.515594 -6.44767 -1.08305 -1.15783 3.51542 
6.97159 112.037 -8.60776 85.8347 48.6602 92.2043 -169.305 21.087 93.8362 -89.3243 12.6607 2.05275 58.3177 -1.64283 1.03656 8.1372 -12.2316 2.908 168.584 30.9584 88.0701 -112.546 -14.666 -3.64467 62.4489 -2.51342 -2.85524 21.5803 2.08043 3.95533 -0.0385195 8.4187 -90.6458 10.033 -0.370482 -1.25556 -1.63851 -0.425364 -1.23805 -24.1688 0.0239581 -1.30885 -4.15616 0.0239665 -1.30885 103.02 2.0475 -78.9069 -7.26923 30.2409 -17.7627 -3.66911 -9.54998 -4.88877 -20.1863 1.64644 -14.7626 -78.9741 -5.06511 93.1163 27.3937 -40.3423 -30.9721 -6.32589 12.2608 -0.0119646 10.8214 -1.25567 -15.6766 -29.8439 0.0826015 -5.65376 2.10762 -0.399043 4.92974 
12.8682 111.499 -12.3849 82.8137 49.6584 93.3989 -163.084 43.8924 81.6608 -95.6437 11.5272 1.54239 68.0438 5.58812 3.10395 5.73035 -12.4356 1.23547 168.84 52.1914 92.5767 -103.121 -11.9406 -3.19883 69.3609 -7.95954 -5.64186 23.1583 1.44468 3.82178 -0.197962 9.81711 -90.5888 7.23502 -0.649095 -1.13116 -4.43623 -0.69825 -1.1015 -26.9678 -0.279179 -1.27391 -6.95514 -0.27916 -1.27393 99.9883 -4.46558 -89.8331 3.63932 21.5692 3.97354 -3.93245 -15.7951 -4.91572 -18.0344 1.74877 -16.6492 -80.528 -8.10011 88.8727 31.8762 -19.9072 -13.1892 -11.7276 18.8782 -0.0187994 7.08547 -0.59999 -13.898 -24.5839 -0.198213 -6.71653 4.38348 -0.37208 5.40924 
20.5757 106.792 -17.8341 79.1085 50.5548 96.7177 -158.639 57.9827 73.5266 -80.8245 13.0198 -1.64062 75.5584 10.1443 0.734674 9.70375 -14.0554 6.90232 170.731 58.7712 92.1688 -71.219 -9.6969 0.0236432 71.9935 -8.72358 -3.58859 21.3229 2.8266 1.99951 -0.0301486 11.0327 -90.8367 4.80246 -0.403276 -1.63518 -6.86943 -0.474832 -1.61586 -29.3963 0.106722 -1.68077 -9.38362 0.106732 -1.68077 97.5832 -12.1213 -95.3366 17.2362 17.5211 7.89241 -4.3956 -26.0195 -5.03002 -16.9242 1.65152 -16.7281 -83.483 -16.2167 82.7503 23.1726 -13.4858 -6.80592 -12.6233 20.6837 -0.0209431 10.0142 -0.828717 -13.5742 -12.7235 -1.4651 -7.39756 3.41444 -0.971901 6.42338 
31.8313 98.3342 -26.9577 75.269 47.6535 100.368 -162.163 63.9767 77.49 -56.0807 13.5559 -6.1342 75.7653 9.13191 -2.50502 17.013 -12.7335 11.8677 175.345 54.8815 91.0056 -39.6426 -14.0355 2.41423 67.132 -4.97001 -1.18111 23.39 2.14853 1.19382 0.196117 11.6684 -90.9226 3.53281 0.0234595 -1.80494 -8.1394 -0.0560004 -1.80423 -30.6652 0.564745 -1.71451 -10.6525 0.564746 -1.7145 94.4173 -17.0079 -102.221 30.3462 13.9979 6.94245 -4.21286 -22.1084 -4.96852 -17.513 2.06317 -19.1996 -84.8322 -24.4944 82.1134 6.12824 -15.0206 -3.48914 -10.9221 20.6003 -0.0207469 10.5781 -0.838953 -13.2413 -3.93278 -1.09886 -2.86244 1.41479 -0.642381 3.23139 
43.4754 84.0086 -36.7508 82.0608 45.168 95.5168 -171.679 62.7008 87.2353 -46.5445 15.4945 -4.62713 73.9129 8.03381 -3.6264 18.6321 -9.1609 7.96288 179.234 59.9339 93.1616 -60.3724 -11.5932 -0.879391 66.2505 -4.05259 -1.81482 21.5025 1.61512 5.46865 0.303049 11.6263 -90.552 3.6234 0.384718 -1.08067 -8.04793 0.336803 -1.09656 -30.581 0.691725 -0.915112 -10.5683 0.691724 -0.915099 90.2209 -27.543 -107.259 33.5179 12.7541 4.278 -4.29937 -23.9906 -4.99371 -13.4068 1.17123 -15.4315 -86.8032 -36.2377 80.8361 -1.20876 -13.7831 -6.9666 -12.4807 17.3652 -0.0188709 11.2663 0.315393 -3.93711 -6.14287 0.219291 -1.15915 0.867624 0.413206 2.66213 
50.7903 73.4736 -44.1807 90.8455 40.8812 92.4453 -177.748 71.4374 93.2027 -70.5253 19.1031 0.211153 60.8749 0.0805959 2.05396 7.27151 -20.9823 13.9375 166.638 66.4211 107.755 -91.1237 -17.0781 -1.97741 65.5712 -5.26862 -5.50571 31.1357 -2.48252 6.49537 0.522422 12.0274 -90.4348 2.8212 0.872615 -0.83924 -8.84975 0.834857 -0.876832 -31.3862 1.08451 -0.538179 -11.3736 1.0845 -0.538177 86.8211 -28.6058 -113.665 32.6536 10.6356 -14.2369 -4.32691 -24.586 -5.00452 -16.6701 0.621072 -9.6877 -90.3138 -42.9654 76.5953 -11.0815 -20.0934 -25.4272 -8.73108 27.739 -0.0181971 4.93015 0.238979 -7.92236 -0.855123 1.66606 -0.0828332 2.89429 1.8043 3.00217 
57.7002 67.9507 -49.8959 96.5114 44.2031 84.2509 -162.981 72.051 76.4252 -89.524 19.6096 1.21361 70.8319 7.80292 4.67681 11.9109 -14.9806 10.2999 166.416 65.5637 103.648 -108.66 -15.2425 -3.68174 70.3335 -9.55421 -7.84541 40.6948 -6.05097 6.0646 0.373697 12.5739 -90.0221 1.72542 0.737834 -0.0267991 -9.94535 0.735938 -0.0592531 -32.4819 0.711768 0.196199 -12.4693 0.711773 0.196205 89.4593 -22.1065 -111.412 27.1361 10.6152 -45.3944 -4.36898 -25.3716 -5.01334 -19.8613 1.41412 -13.614 -92.1523 -38.6926 72.3076 -18.9304 -18.4929 -64.3834 -9.21673 24.479 0.00944653 11.8242 -1.13124 -14.8668 3.40928 0.734427 -0.135936 3.80941 0.758967 0.290262 
63.4613 67.8624 -53.9534 94.1578 46.5016 84.3242 -152.927 71.2446 68.4185 -96.2165 21.7176 1.1698 74.8988 10.9007 5.00239 11.6572 -15.0734 10.1553 170.301 63.4057 100.987 -112.033 -10.9101 -3.95831 70.4681 -9.60557 -6.55558 51.1563 -9.95671 5.24232 0.474227 12.2426 -89.9168 2.38715 0.979318 0.181074 -9.28344 0.986343 0.137787 -31.8209 0.879607 0.467043 -11.8083 0.879624 0.467055 93.6762 -11.5611 -106.526 17.8246 18.9537 -68.036 -3.9134 -15.3484 -4.91017 -21.6897 1.8344 -15.1348 -90.0144 -27.8084 72.5026 -25.4195 -17.8512 -91.5505 -6.17922 22.1809 0.0477356 14.7443 -1.97686 -16.979 4.56338 -1.33228 1.0314 7.82192 -1.48409 0.0775738 
69.8327 72.3061 -58.1725 90.889 50.4608 84.5266 -155.812 65.4611 71.1549 -93.948 25.267 0.465982 76.0497 12.398 6.31418 11.5666 -14.3215 8.9733 173.043 55.5061 97.451 -106.852 -6.946 -3.78965 71.3936 -10.1869 -6.66178 56.4472 -12.0137 3.49098 0.442475 11.6696 -89.7315 3.53231 0.991418 0.525663 -8.13835 1.01361 0.481502 -30.6748 0.787592 0.79931 -10.6621 0.787619 0.799321 98.1644 -1.66747 -97.1931 12.1576 27.6143 -77.1155 -3.403 -3.10164 -4.89483 -25.0163 2.44245 -16.4483 -85.9735 -16.0851 76.8234 -24.2238 -20.6594 -108.765 -5.36469 12.374 0.300342 15.5907 -2.82983 -21.0946 1.62754 -2.92572 -2.08536 10.471 -2.58145 -0.213696 
